<svg width="600" height="30" xmlns="http://www.w3.org/2000/svg">
  <rect width="15" height="30" x="0" y="0" fill="red" />
  <rect width="35" height="30" x="15" y="0" fill="lightgrey" />
  <rect width="15" height="30" x="50" y="0" fill="red" />
  <rect width="35" height="30" x="65" y="0" fill="lightgrey" />
  <rect width="15" height="30" x="100" y="0" fill="red" />
  <rect width="35" height="30" x="115" y="0" fill="lightgrey" />
  <rect width="15" height="30" x="150" y="0" fill="red" />
  <rect width="35" height="30" x="165" y="0" fill="lightgrey" />
  <rect width="15" height="30" x="200" y="0" fill="red" />
  <rect width="35" height="30" x="215" y="0" fill="lightgrey" />
  <rect width="100" height="30" x="250" y="0" fill="lightgrey" />
  <rect width="15" height="30" x="350" y="0" fill="red" />
  <rect width="35" height="30" x="365" y="0" fill="lightgrey" />
  <rect width="15" height="30" x="400" y="0" fill="red" />
  <rect width="35" height="30" x="415" y="0" fill="lightgrey" />
  <rect width="15" height="30" x="450" y="0" fill="red" />
  <rect width="35" height="30" x="465" y="0" fill="lightgrey" />
  <rect width="15" height="30" x="500" y="0" fill="red" />
  <rect width="35" height="30" x="515" y="0" fill="lightgrey" />
  <rect width="15" height="30" x="550" y="0" fill="red" />
  <rect width="35" height="30" x="565" y="0" fill="lightgrey" />
</svg>
