<svg width="600" height="30" xmlns="http://www.w3.org/2000/svg">
  <rect width="24" height="30" x="0" y="0" fill="red" />
  <rect width="6" height="30" x="24" y="0" fill="lightgrey" />
  <rect width="24" height="30" x="30" y="0" fill="red" />
  <rect width="6" height="30" x="54" y="0" fill="lightgrey" />
  <rect width="24" height="30" x="60" y="0" fill="red" />
  <rect width="6" height="30" x="84" y="0" fill="lightgrey" />
  <rect width="40" height="30" x="90" y="0" fill="lightgrey" />
  <rect width="24" height="30" x="130" y="0" fill="red" />
  <rect width="6" height="30" x="154" y="0" fill="lightgrey" />
  <rect width="24" height="30" x="160" y="0" fill="red" />
  <rect width="6" height="30" x="184" y="0" fill="lightgrey" />
  <rect width="24" height="30" x="190" y="0" fill="red" />
  <rect width="6" height="30" x="214" y="0" fill="lightgrey" />
  <rect width="40" height="30" x="220" y="0" fill="lightgrey" />

  <rect width="24" height="30" x="260" y="0" fill="red" />
  <rect width="6" height="30" x="284" y="0" fill="lightgrey" />
  <rect width="24" height="30" x="290" y="0" fill="red" />
  <rect width="6" height="30" x="314" y="0" fill="lightgrey" />
  <rect width="24" height="30" x="320" y="0" fill="red" />
  <rect width="6" height="30" x="344" y="0" fill="lightgrey" />
  <rect width="40" height="30" x="350" y="0" fill="lightgrey" />
  <rect width="24" height="30" x="390" y="0" fill="red" />
  <rect width="6" height="30" x="414" y="0" fill="lightgrey" />
  <rect width="24" height="30" x="420" y="0" fill="red" />
  <rect width="6" height="30" x="444" y="0" fill="lightgrey" />
  <rect width="24" height="30" x="450" y="0" fill="red" />
  <rect width="6" height="30" x="474" y="0" fill="lightgrey" />
  <rect width="40" height="30" x="480" y="0" fill="lightgrey" />

  <rect width="24" height="30" x="520" y="0" fill="red" />
  <rect width="6" height="30" x="544" y="0" fill="lightgrey" />
  <rect width="24" height="30" x="550" y="0" fill="red" />
  <rect width="6" height="30" x="574" y="0" fill="lightgrey" />
  <rect width="20" height="30" x="580" y="0" fill="red" />
</svg>
