<svg width="600" height="30" xmlns="http://www.w3.org/2000/svg">
  <rect width="5" height="30" x="0" y="0" fill="red" />
  <rect width="5" height="30" x="5" y="0" fill="lightgrey" />
  <rect width="5" height="30" x="10" y="0" fill="red" />
  <rect width="5" height="30" x="15" y="0" fill="lightgrey" />
  <rect width="30" height="30" x="20" y="0" fill="lightgrey" />
  <rect width="5" height="30" x="50" y="0" fill="red" />
  <rect width="5" height="30" x="55" y="0" fill="lightgrey" />
  <rect width="5" height="30" x="60" y="0" fill="red" />
  <rect width="5" height="30" x="65" y="0" fill="lightgrey" />
  <rect width="30" height="30" x="70" y="0" fill="lightgrey" />
  <rect width="5" height="30" x="100" y="0" fill="red" />
  <rect width="5" height="30" x="105" y="0" fill="lightgrey" />
  <rect width="5" height="30" x="110" y="0" fill="red" />
  <rect width="5" height="30" x="115" y="0" fill="lightgrey" />
  <rect width="30" height="30" x="120" y="0" fill="lightgrey" />
  <rect width="5" height="30" x="150" y="0" fill="red" />
  <rect width="5" height="30" x="155" y="0" fill="lightgrey" />
  <rect width="5" height="30" x="160" y="0" fill="red" />
  <rect width="5" height="30" x="165" y="0" fill="lightgrey" />
  <rect width="30" height="30" x="170" y="0" fill="lightgrey" />
  <rect width="5" height="30" x="200" y="0" fill="red" />
  <rect width="5" height="30" x="205" y="0" fill="lightgrey" />
  <rect width="5" height="30" x="210" y="0" fill="red" />
  <rect width="5" height="30" x="215" y="0" fill="lightgrey" />
  <rect width="30" height="30" x="220" y="0" fill="lightgrey" />
  <rect width="5" height="30" x="250" y="0" fill="red" />
  <rect width="5" height="30" x="255" y="0" fill="lightgrey" />
  <rect width="5" height="30" x="260" y="0" fill="red" />
  <rect width="5" height="30" x="265" y="0" fill="lightgrey" />
  <rect width="30" height="30" x="270" y="0" fill="lightgrey" />
  <rect width="5" height="30" x="300" y="0" fill="red" />
  <rect width="5" height="30" x="305" y="0" fill="lightgrey" />
  <rect width="5" height="30" x="310" y="0" fill="red" />
  <rect width="5" height="30" x="315" y="0" fill="lightgrey" />
  <rect width="30" height="30" x="320" y="0" fill="lightgrey" />
  <rect width="5" height="30" x="350" y="0" fill="red" />
  <rect width="5" height="30" x="355" y="0" fill="lightgrey" />
  <rect width="5" height="30" x="360" y="0" fill="red" />
  <rect width="5" height="30" x="365" y="0" fill="lightgrey" />
  <rect width="30" height="30" x="370" y="0" fill="lightgrey" />
  <rect width="5" height="30" x="400" y="0" fill="red" />
  <rect width="5" height="30" x="405" y="0" fill="lightgrey" />
  <rect width="5" height="30" x="410" y="0" fill="red" />
  <rect width="5" height="30" x="415" y="0" fill="lightgrey" />
  <rect width="30" height="30" x="420" y="0" fill="lightgrey" />
  <rect width="5" height="30" x="450" y="0" fill="red" />
  <rect width="5" height="30" x="455" y="0" fill="lightgrey" />
  <rect width="5" height="30" x="460" y="0" fill="red" />
  <rect width="5" height="30" x="465" y="0" fill="lightgrey" />
  <rect width="30" height="30" x="470" y="0" fill="lightgrey" />
  <rect width="5" height="30" x="500" y="0" fill="red" />
  <rect width="5" height="30" x="505" y="0" fill="lightgrey" />
  <rect width="5" height="30" x="510" y="0" fill="red" />
  <rect width="5" height="30" x="515" y="0" fill="lightgrey" />
  <rect width="30" height="30" x="520" y="0" fill="lightgrey" />
  <rect width="5" height="30" x="550" y="0" fill="red" />
  <rect width="5" height="30" x="555" y="0" fill="lightgrey" />
  <rect width="5" height="30" x="560" y="0" fill="red" />
  <rect width="5" height="30" x="565" y="0" fill="lightgrey" />
  <rect width="30" height="30" x="570" y="0" fill="lightgrey" />
</svg>
