<svg width="600" height="30" xmlns="http://www.w3.org/2000/svg">
  <rect width="5" height="30" x="0" y="0" fill="red" />
  <rect width="5" height="30" x="5" y="0" fill="lightgrey" />
  <rect width="5" height="30" x="10" y="0" fill="red" />
  <rect width="5" height="30" x="15" y="0" fill="lightgrey" />
  <rect width="5" height="30" x="20" y="0" fill="red" />
  <rect width="5" height="30" x="25" y="0" fill="lightgrey" />
  <rect width="5" height="30" x="30" y="0" fill="red" />
  <rect width="5" height="30" x="35" y="0" fill="lightgrey" />
  <rect width="5" height="30" x="40" y="0" fill="red" />
  <rect width="5" height="30" x="45" y="0" fill="lightgrey" />
  <rect width="5" height="30" x="50" y="0" fill="red" />
  <rect width="5" height="30" x="55" y="0" fill="lightgrey" />
  <rect width="5" height="30" x="60" y="0" fill="red" />
  <rect width="5" height="30" x="65" y="0" fill="lightgrey" />
  <rect width="5" height="30" x="70" y="0" fill="red" />
  <rect width="5" height="30" x="75" y="0" fill="lightgrey" />
  <rect width="5" height="30" x="80" y="0" fill="red" />
  <rect width="5" height="30" x="85" y="0" fill="lightgrey" />
  <rect width="5" height="30" x="90" y="0" fill="red" />
  <rect width="5" height="30" x="95" y="0" fill="lightgrey" />
  <rect width="5" height="30" x="100" y="0" fill="red" />
  <rect width="5" height="30" x="105" y="0" fill="lightgrey" />
  <rect width="5" height="30" x="110" y="0" fill="red" />
  <rect width="5" height="30" x="115" y="0" fill="lightgrey" />
  <rect width="5" height="30" x="120" y="0" fill="red" />
  <rect width="5" height="30" x="125" y="0" fill="lightgrey" />
  <rect width="5" height="30" x="130" y="0" fill="red" />
  <rect width="5" height="30" x="135" y="0" fill="lightgrey" />
  <rect width="5" height="30" x="140" y="0" fill="red" />
  <rect width="5" height="30" x="145" y="0" fill="lightgrey" />
  <rect width="5" height="30" x="150" y="0" fill="red" />
  <rect width="5" height="30" x="155" y="0" fill="lightgrey" />
  <rect width="5" height="30" x="160" y="0" fill="red" />
  <rect width="5" height="30" x="165" y="0" fill="lightgrey" />
  <rect width="5" height="30" x="170" y="0" fill="red" />
  <rect width="5" height="30" x="175" y="0" fill="lightgrey" />
  <rect width="5" height="30" x="180" y="0" fill="red" />
  <rect width="5" height="30" x="185" y="0" fill="lightgrey" />
  <rect width="5" height="30" x="190" y="0" fill="red" />
  <rect width="5" height="30" x="195" y="0" fill="lightgrey" />

  <rect width="5" height="30" x="200" y="0" fill="red" />
  <rect width="5" height="30" x="205" y="0" fill="lightgrey" />
  <rect width="5" height="30" x="210" y="0" fill="red" />
  <rect width="5" height="30" x="215" y="0" fill="lightgrey" />
  <rect width="5" height="30" x="220" y="0" fill="red" />
  <rect width="5" height="30" x="225" y="0" fill="lightgrey" />
  <rect width="5" height="30" x="230" y="0" fill="red" />
  <rect width="5" height="30" x="235" y="0" fill="lightgrey" />
  <rect width="5" height="30" x="240" y="0" fill="red" />
  <rect width="5" height="30" x="245" y="0" fill="lightgrey" />
  <rect width="5" height="30" x="250" y="0" fill="red" />
  <rect width="5" height="30" x="255" y="0" fill="lightgrey" />
  <rect width="5" height="30" x="260" y="0" fill="red" />
  <rect width="5" height="30" x="265" y="0" fill="lightgrey" />
  <rect width="5" height="30" x="270" y="0" fill="red" />
  <rect width="5" height="30" x="275" y="0" fill="lightgrey" />
  <rect width="5" height="30" x="280" y="0" fill="red" />
  <rect width="5" height="30" x="285" y="0" fill="lightgrey" />
  <rect width="5" height="30" x="290" y="0" fill="red" />
  <rect width="5" height="30" x="295" y="0" fill="lightgrey" />
  <rect width="5" height="30" x="300" y="0" fill="red" />
  <rect width="5" height="30" x="305" y="0" fill="lightgrey" />
  <rect width="5" height="30" x="310" y="0" fill="red" />
  <rect width="5" height="30" x="315" y="0" fill="lightgrey" />
  <rect width="5" height="30" x="320" y="0" fill="red" />
  <rect width="5" height="30" x="325" y="0" fill="lightgrey" />
  <rect width="5" height="30" x="330" y="0" fill="red" />
  <rect width="5" height="30" x="335" y="0" fill="lightgrey" />
  <rect width="5" height="30" x="340" y="0" fill="red" />
  <rect width="5" height="30" x="345" y="0" fill="lightgrey" />
  <rect width="5" height="30" x="350" y="0" fill="red" />
  <rect width="5" height="30" x="355" y="0" fill="lightgrey" />
  <rect width="5" height="30" x="360" y="0" fill="red" />
  <rect width="5" height="30" x="365" y="0" fill="lightgrey" />
  <rect width="5" height="30" x="370" y="0" fill="red" />
  <rect width="5" height="30" x="375" y="0" fill="lightgrey" />
  <rect width="5" height="30" x="380" y="0" fill="red" />
  <rect width="5" height="30" x="385" y="0" fill="lightgrey" />
  <rect width="5" height="30" x="390" y="0" fill="red" />
  <rect width="5" height="30" x="395" y="0" fill="lightgrey" />
</svg>
